<?xml version="1.0" encoding="utf-8"?><svg xmlns="http://www.w3.org/2000/svg" xmlns:xlink="http://www.w3.org/1999/xlink"><symbol viewBox="0 0 261.6 261.6" id="besedka" xmlns="http://www.w3.org/2000/svg"><path class="ast0" d="M130.8 0C203 0 261.6 58.6 261.6 130.8c0 72.3-58.6 130.8-130.8 130.8C58.6 261.6 0 203 0 130.8 0 58.6 58.6 0 130.8 0zm82.5 48.3c-21.1-21.1-50.3-34.2-82.5-34.2S69.5 27.2 48.3 48.3c-21.1 21.1-34.2 50.3-34.2 82.5s13.1 61.4 34.2 82.5 50.3 34.2 82.5 34.2 61.4-13.1 82.5-34.2 34.2-50.3 34.2-82.5c-.1-32.2-13.1-61.4-34.2-82.5zM161.7 99H137v39h24.7V99zm-93.3 39H93V99H68.9l-.5.4V138zm20.4 9.8H72.7v22.4h16.1v-22.4zm4.2 12h-2.8v11.9h-8.8v3.4H93v-15.3zm-2.8-1.5H93v-16H81.4v4.1h8.8v11.9zm-21.8 0h2.9v-11.9H80v-4.1H68.4v16zm2.9 1.5h-2.9v15.3H80v-3.4h-8.7v-11.9zm86.8-12H142v22.4h16.1v-22.4zm3.6 12h-2.2v11.9h-8.8v3.4h10.9v-15.3h.1zm-2.1-1.5h2.2v-16h-10.9v4.1h8.8v11.9h-.1zm-22.5 0h3.6v-11.9h8.7v-4.1h-12.3v16zm3.6 1.5h-3.6v15.3h12.3v-3.4h-8.7v-11.9zm47.5-17.5v2.6h13.6v6.6l.9-.1v-9.1h-14.5zm0 22.1v2.3l14.5-6v-7.9l-.9.1v6.6c-4.5 1.6-9.1 3.3-13.6 4.9zm-.9-1.2l13.2-4.7v-12.2h-27.9v22.2l14.7-5.3zm-18.5-5.6l2.3-.3v-12.4h15.7v-2.6h-18v15.3zm2.3 1.2l-2.3.3v15.7l18-7.5v-2.4l-15.7 5.6v-11.7zM114.6 56.1c1.6-1.2 3.8-.9 5 .7.1.2.3.4.4.6l99.8 56c1.7.9 2.3 3.1 1.3 4.7-.8 1.4-2.5 2.1-4 1.7l-8.7-2V168c0 1.6-1.3 2.8-2.8 2.8-1.6 0-2.8-1.2-2.8-2.8v-2.7l-33.4 13.9c-.2.1-.3.1-.5.2v3.5c0 2-1.6 3.5-3.5 3.5-2 0-3.5-1.6-3.5-3.5v-3.5h-24.7v3.5c0 1.2-.9 2.1-2.1 2.1-1.2 0-2.1-1-2.1-2.1V99H97.3v83.8c0 1.2-1 2.1-2.1 2.1-1.2 0-2.1-1-2.1-2.1v-3.5H68.4v3.5c0 2-1.6 3.5-3.5 3.5-2 0-3.5-1.6-3.5-3.5v-78.2l-7.6 5.7c-1.6 1.2-3.8.9-5-.7-1.2-1.6-.9-3.8.7-5l65.1-48.5zm1.7 7.5L74.6 94.7H158l-41.7-31.1zm52.5 39.2V138h33.9v-21.5l-21.4-4.9c-.5-.1-1-.3-1.5-.7l-11-8.1z"/></symbol><symbol viewBox="0 0 20 20" id="chevron-down" xmlns="http://www.w3.org/2000/svg"><path d="M16 7l-6 6-6-6"/></symbol><symbol viewBox="0 0 20 20" id="chevron-left" xmlns="http://www.w3.org/2000/svg"><path d="M13 16l-6-6 6-6"/></symbol><symbol viewBox="0 0 20 20" id="chevron-right" xmlns="http://www.w3.org/2000/svg"><path d="M7 4l6 6-6 6"/></symbol><symbol viewBox="0 0 20 20" id="chevron-up" xmlns="http://www.w3.org/2000/svg"><path d="M4 13l6-6 6 6"/></symbol><symbol viewBox="0 0 20 20" id="close" xmlns="http://www.w3.org/2000/svg"><path d="M16 16L4 4m12 0L4 16"/></symbol><symbol viewBox="0 0 261.6 261.6" id="lestnica" xmlns="http://www.w3.org/2000/svg"><path class="gst0" d="M130.8 0C203 0 261.6 58.6 261.6 130.8c0 72.3-58.6 130.8-130.8 130.8C58.6 261.6 0 203 0 130.8 0 58.6 58.6 0 130.8 0zm82.5 48.3c-21.1-21.1-50.3-34.2-82.5-34.2S69.5 27.2 48.3 48.3c-21.1 21.1-34.2 50.3-34.2 82.5s13.1 61.4 34.2 82.5 50.3 34.2 82.5 34.2 61.4-13.1 82.5-34.2 34.2-50.3 34.2-82.5c-.1-32.2-13.1-61.4-34.2-82.5zm-33.7 86.9l22.8.4-2.5 3.5-23.5-.5 3.2-3.4v-6 6zM85.1 56l-33.4 5.3-3.1.5.4 11.4 19.2 3.7 71.9 58.9 2.5.1 17.7-.9 7.2.1.5.5-55.8 60.8-9.2 3 .2 11.4 3.6.7 10.7-4.1 3.3-3.9 24.9 4 .1 11.2 4.3.8 9.4-4.9 51.8-77.2 12.8-1.2.1-7.5-51.9-.2-63.7-66.8-19.8-5.9-3.7.2zM74 67.2l11.4-1.6.1 2.8 7.3 1.8-13.4 1.7-5.4-4.7zm69.6 61.1l-4.3-3.8 17.4-.1 3.8 3.7h-.1l-16.8.2zm-5.3-4.7l-4.5-4 17.7-.2 4.2 4.1-17.4.1zm-5.8-5l-4.6-4.1 18.1-.4 4.3 4.2-17.8.3zm-6.1-5.4l-4.7-4.1 18.5-.7 4.4 4.3-18.2.5zm-6.5-5.7l-4.8-4.2 18.8-.9 4.5 4.4-18.5.7zm-7-6.1l-4.9-4.3 19.2-1.2 4.6 4.5-18.9 1zm-7.5-6.6l-5-4.4 19.6-1.5 4.7 4.6-19.3 1.3zm-8.1-7.1l-5.1-4.5 20-1.9L117 86l-19.7 1.7zm-8.6-7.6l-5.2-4.6 20.4-2.4 5 4.8-20.2 2.2zm86.6 59.8l23.6.6-3.2 4.4-24-.8 3.6-4.2zm-5 5.7l24.2.9-3.3 4.5-24.6-1.1 3.7-4.3zm-5.3 6.2l24.7 1.2-3.3 4.6-25.1-1.4 3.7-4.4zm-5.6 6.6l25.3 1.6-3.4 4.7-25.8-1.8 3.9-4.5zm-6.1 7l26 2-3.5 4.8-26.4-2.3 3.9-4.5zm-6.4 7.5l26.6 2.5-3.6 4.9-27-2.7 4-4.7zm-7 8.1l27.3 3-3.7 5.1-27.7-3.3 4.1-4.8zm-7.4 8.7l28 3.6-3.8 5.2-28.4-4 4.2-4.8zm40.1-59.2l1.9-2.1 2.8.1h-2.8l-1.9 2zm-.3-2.3l.3.3-.3-.3z"/></symbol><symbol viewBox="0 0 20 20" id="location" xmlns="http://www.w3.org/2000/svg"><path d="M10 .5C6.41.5 3.5 3.39 3.5 6.98 3.5 11.83 10 19 10 19s6.5-7.17 6.5-12.02C16.5 3.39 13.59.5 10 .5z"/><circle cx="10" cy="6.8" r="2.3"/></symbol><symbol viewBox="0 0 20 20" id="mail" xmlns="http://www.w3.org/2000/svg"><path class="ifil0 istr0" d="M0 3h20v14H0z"/><path class="ifil0 istr0" d="M0 5l10 7 10-7"/></symbol><symbol viewBox="0 0 261.6 261.6" id="mangal" xmlns="http://www.w3.org/2000/svg"><path class="jst0" d="M38.7 95h24.4v6.7H38.7V95zm159.8 0h24.4v6.7h-24.4V95zm-19.7 13c1.7 0 3.1 1.4 3.1 3.1 0 1.7-1.4 3.1-3.1 3.1-1.7 0-3.1-1.4-3.1-3.1 0-1.7 1.4-3.1 3.1-3.1zm-13.5 0c1.7 0 3.1 1.4 3.1 3.1 0 1.7-1.4 3.1-3.1 3.1-1.7 0-3.1-1.4-3.1-3.1 0-1.7 1.4-3.1 3.1-3.1zm-13.5 0c1.7 0 3.1 1.4 3.1 3.1 0 1.7-1.4 3.1-3.1 3.1-1.7 0-3.1-1.4-3.1-3.1 0-1.7 1.4-3.1 3.1-3.1zm-13.5 0c1.7 0 3.1 1.4 3.1 3.1 0 1.7-1.4 3.1-3.1 3.1-1.7 0-3.1-1.4-3.1-3.1 0-1.7 1.4-3.1 3.1-3.1zm-13.5 0c1.7 0 3.1 1.4 3.1 3.1 0 1.7-1.4 3.1-3.1 3.1-1.7 0-3.1-1.4-3.1-3.1 0-1.7 1.4-3.1 3.1-3.1zm-13.5 0c1.7 0 3.1 1.4 3.1 3.1 0 1.7-1.4 3.1-3.1 3.1-1.7 0-3.1-1.4-3.1-3.1 0-1.7 1.4-3.1 3.1-3.1zm-13.5 0c1.7 0 3.1 1.4 3.1 3.1 0 1.7-1.4 3.1-3.1 3.1-1.7 0-3.1-1.4-3.1-3.1 0-1.7 1.4-3.1 3.1-3.1zm-13.4 0c1.7 0 3.1 1.4 3.1 3.1 0 1.7-1.4 3.1-3.1 3.1-1.7 0-3.1-1.4-3.1-3.1-.1-1.7 1.3-3.1 3.1-3.1zm103.2 13.5H70.8v27.8h116.8v-27.8zM52.7 75.3h25.6v1.8h3.9v-1.8H93v1.8h3.9v-1.8h10.8v1.8h3.9v-1.8h10.8v1.8h3.9v-1.8H137v1.8h3.9v-1.8h10.8v1.8h3.9v-1.8h10.8v1.8h3.9v-1.8h10.8v1.8h3.9v-1.8h25.6v19H198v8.2h12.6v15.1c0 2.2-1.8 4-4 4h-13.2v64.9h-5.7v-31.4H70.8v31.4h-5.7v-64.9h-8.5c-2.2 0-3.9-1.8-3.9-4v-15.1h11.1v-8.2H52.7v-19zM130.8 0C203 0 261.6 58.6 261.6 130.8c0 72.3-58.6 130.8-130.8 130.8C58.6 261.6 0 203 0 130.8 0 58.6 58.6 0 130.8 0zm82.5 48.3c-21.1-21.1-50.3-34.2-82.5-34.2S69.5 27.2 48.3 48.3c-21.1 21.1-34.2 50.3-34.2 82.5s13.1 61.4 34.2 82.5 50.3 34.2 82.5 34.2 61.4-13.1 82.5-34.2 34.2-50.3 34.2-82.5c-.1-32.2-13.1-61.4-34.2-82.5z"/></symbol><symbol viewBox="0 0 261.6 261.6" id="mebel" xmlns="http://www.w3.org/2000/svg"><path class="kst0" d="M130.8 0C203 0 261.6 58.6 261.6 130.8c0 72.3-58.6 130.8-130.8 130.8C58.6 261.6 0 203 0 130.8 0 58.6 58.6 0 130.8 0zm82.5 48.3c-21.1-21.1-50.3-34.2-82.5-34.2S69.5 27.2 48.3 48.3c-21.1 21.1-34.2 50.3-34.2 82.5s13.1 61.4 34.2 82.5 50.3 34.2 82.5 34.2 61.4-13.1 82.5-34.2 34.2-50.3 34.2-82.5c-.1-32.2-13.1-61.4-34.2-82.5zm-75.7 65.9l23.9 1.1c0 .1 0 .3.1.4l2.5 12.5-36.6-3.5c-.7-.1-1.4.5-1.4 1.3-.1.8.5 1.5 1.2 1.5l37.4 3.5 10.3 52.1c.2 1.1 1.3 1.9 2.3 1.6 1-.3 1.7-1.4 1.5-2.5l-10.1-51.5 42.1-12.9 13.6 43.4c.3 1.1 1.5 1.7 2.5 1.3 1-.4 1.6-1.6 1.2-2.7l-16.5-52.6 15.2-3.1v-3.6l-92.8 3 3.6 10.7zm27.9 1.3l5.2.3 36.8-7.5 2.2 7.1-41.8 12.8-2.4-12.7zm-38.2 49l33.6-7.6-2.1-10.9-20.6 1.8-7.2-.8v.3l-3.7 17.2zm-76-14.8l71.9 14.9 3.9-18.2-72.6-8.3-3.2 11.6zm71.4 17.8l-72.1-15-3.5 12.6c-.2.9-1.1 1.5-2 1.2-.9-.3-1.4-1.3-1.1-2.2l7.1-26.3-11.8-1.4v-2.9l11.2-.6-8-19.4-4.5-.2-3.2-6 1.6-.7h3.2l-.9-2.2h-4.3l-3.1-5.9 1.6-.7 3.1-.1c-.3-.7 0-1.5.7-1.8.7-.3 1.4 0 1.7.7l.4 1 70.2-3.3-.1-.3c-.3-.7.1-1.6.7-1.8.7-.3 1.4 0 1.7.8l.5 1.3 16.4-.8 3.4 9.4-1.9 1.2-14.1.1.9 2.3 16.2-.1 3.4 9.5-1.9 1.1-13.9-.5 7.7 20.2 37 3 1.1 5.8-3.3.3 4.5 23.2c.2 1.2-.5 2.3-1.5 2.5-1 .3-2.1-.5-2.3-1.6l-1.9-10.1-34.8 7.9-4.1 19.2c-.3 1.2-1.3 1.9-2.4 1.6-1-.3-1.7-1.4-1.5-2.6l3.9-18.4zm-69.4-34.7l15.8-.9 56 4.5-7.7-20-72-2.7 7.9 19.1zm-11.7-28.3l.9 2.2 71.1-.3-.9-2.3-71.1.4zm129.9 35.6l.8 4.7 10.3-.9V141l-11.1-.9z"/></symbol><symbol viewBox="0 0 20 20" id="menu" xmlns="http://www.w3.org/2000/svg"><path d="M2 4h16v1H2zm0 5h16v1H2zm0 5h16v1H2z"/></symbol><symbol viewBox="0 0 261.6 261.6" id="naves" xmlns="http://www.w3.org/2000/svg"><path class="mst0" d="M130.8 0C203 0 261.6 58.6 261.6 130.8c0 72.3-58.6 130.8-130.8 130.8C58.6 261.6 0 203 0 130.8 0 58.6 58.6 0 130.8 0zm82.5 48.3c-21.1-21.1-50.3-34.2-82.5-34.2S69.5 27.2 48.3 48.3c-21.1 21.1-34.2 50.3-34.2 82.5s13.1 61.4 34.2 82.5 50.3 34.2 82.5 34.2 61.4-13.1 82.5-34.2 34.2-50.3 34.2-82.5c-.1-32.2-13.1-61.4-34.2-82.5zm-53.9 102.6c-2.2 0-4.1 1.8-4.1 4.1s1.8 4.1 4.1 4.1 4.1-1.8 4.1-4.1c0-2.2-1.9-4.1-4.1-4.1zm-56.6 0c-2.2 0-4.1 1.8-4.1 4.1s1.8 4.1 4.1 4.1 4.1-1.8 4.1-4.1c0-2.2-1.9-4.1-4.1-4.1zm-8.3 21.6h-3.2v-17.7c0-4.2 2.5-7.8 6.1-9.4l10-14.5c2-2.8 2.9-5.1 7-5.1h33.3c4.1 0 5 2.2 7 5.1l10.3 15c3.2 1.8 5.3 5.2 5.3 9v17.7h-3.1v9.5c0 4.8-8.1 4.8-8.1 0v-9.5h-56.4v9.5c0 4.8-8.1 4.8-8.1 0l-.1-9.6zm43.9-28c1-3.2 4.1-5.5 7.5-5.5s6.5 2.2 7.5 5.5h3.8L150 134c-.5-.7-1.5-2.6-2.3-2.6h-33.3c-.8 0-1.8 1.9-2.3 2.6l-7.2 10.5h33.5zm3.1 0h8.9c-.9-1.6-2.6-2.6-4.5-2.6-1.8 0-3.5 1-4.4 2.6zm9.8-69.1l3.6-9.6c-7.2-2.2-14.8-3.4-22.7-3.5v10.3c6.6.1 13 1.1 19.1 2.8zm-5.1 13.3l3.5-9.3c-5.6-1.6-11.5-2.4-17.6-2.6v9.7c5 .2 9.7.9 14.1 2.2zm23.4 0l-6.5 8.4c2.8 2.2 5.4 4.7 7.6 7.4l10.7-4.9c-3.3-4.1-7.3-7.8-11.8-10.9zm8.8-11.4l-6.2 8c5 3.6 9.5 7.8 13.2 12.4l8.8-4.1v-2c-4.7-5.3-10-10.2-15.8-14.3zm-8.6 6.4l6.2-8c-5.7-3.7-11.9-6.8-18.5-9l-3.6 9.5c4.9 1.6 9.5 3.7 13.7 6.2.8.4 1.5.9 2.2 1.3zm-9 11.8l6.5-8.4c-.6-.4-1.1-.7-1.7-1-4-2.4-8.4-4.3-13.1-5.9l-3.5 9.4c3.2 1.1 6.3 2.6 9.2 4.3.8.4 1.7 1 2.6 1.6zM113.1 79l3.5 9.3c4.1-1.1 8.3-1.7 12.8-1.8v-9.7c-5.7.2-11.1.9-16.3 2.2zm-5.2-13.6l3.6 9.6c5.6-1.5 11.6-2.3 17.8-2.4V62.3c-7.4.1-14.6 1.2-21.4 3.1zM95.2 86.5l6.5 8.4c.6-.4 1.2-.8 1.8-1.1 3.2-1.9 6.7-3.5 10.4-4.6l-3.5-9.4c-5.1 1.5-9.9 3.6-14.3 6.2-.3.2-.6.3-.9.5zm-8.8-11.4l6.2 8.1c.4-.3.9-.5 1.3-.8 4.6-2.7 9.6-4.9 14.9-6.5l-3.6-9.6c-6.6 2.1-13 5.1-18.8 8.8zm3.9 9.6l-6.2-8c-6.1 4.2-11.6 9.1-16.4 14.7v1l9.1 4.7c3.7-4.8 8.3-8.9 13.5-12.4zm9.1 11.8L92.9 88c-4.7 3.1-8.8 6.8-12.3 11l10.4 5.4c2.4-3 5.2-5.6 8.4-7.9zm-54.6 22.4c-.3.7-1.1 1.1-1.8.9-.7-.3-1.1-1.1-.9-1.8 7.1-19.4 19.5-35.8 35.2-47.4 15.3-11.2 33.6-17.7 53.4-17.7 19.9 0 38.3 6.6 53.6 17.9 15.7 11.6 28.1 28.1 35.1 47.6.3.7-.1 1.5-.9 1.8-.7.3-1.6-.1-1.8-.9-6.9-18.9-18.9-35-34.2-46.3-14.8-10.9-32.7-17.3-51.9-17.3-19.2 0-37 6.3-51.8 17.2-15.1 11.2-27.1 27.2-34 46zm47.5 31.5c-.2.1-.5.2-.7.2-.8 0-1.4-.7-1.4-1.4v-38.9c-.9 1.3-1.6 2.7-2.3 4.2-.3.7-1.2 1-1.9.7-.7-.3-1-1.2-.7-1.9 1-2.3 2.3-4.5 3.8-6.5l-8.9-4.6v57.5c0 1.2-1 2.1-2.1 2.1-1.2 0-2.1-1-2.1-2.1v-54.2c-1 1.6-1.9 3.2-2.6 4.9-.5 1.1-1.8 1.5-2.8 1-1-.5-1.5-1.8-1-2.8 1.5-3.3 3.3-6.4 5.5-9.3l-7.3-3.8V175c0 1.6-1.3 2.8-2.8 2.8s-3-1.2-3-2.8V98.8c-3.3 4.9-6.1 10.1-8.3 15.6-.6 1.5-2.2 2.2-3.7 1.6-1.4-.6-2.2-2.2-1.6-3.7C55 95.7 66.5 81.7 81.1 71.8c14.1-9.6 31.2-15.2 49.6-15.2 18.4 0 35.5 5.6 49.7 15.3 7 4.7 13.2 10.4 18.6 16.9l.3.3c5.8 7 10.4 14.9 13.8 23.5.6 1.4-.1 3.1-1.6 3.7-1.4.6-3.1-.1-3.7-1.6-2.2-5.4-4.9-10.6-8.1-15.4V175c0 1.6-1.2 2.8-2.8 2.8-1.6 0-2.8-1.2-2.8-2.8V96.8l-7.1 3.3c1.9 2.7 3.6 5.7 5 8.7.5 1 0 2.3-1 2.8-1.1.5-2.3 0-2.8-1-.7-1.4-1.4-2.9-2.2-4.2v53.3c0 1.2-1 2.1-2.1 2.1-1.2 0-2.1-1-2.1-2.1v-57.1l-9.4 4.3c1.5 2.1 2.7 4.2 3.8 6.5.3.7 0 1.5-.7 1.9-.7.3-1.5 0-1.9-.7-.6-1.2-1.2-2.5-1.9-3.7v38.3c0 .8-.6 1.4-1.4 1.4-.8 0-1.4-.7-1.4-1.4v-42.4c-3.3-4.1-7.4-7.7-12.2-10.5-7.4-4.3-16.3-6.9-25.9-6.9-9.6 0-18.5 2.5-25.9 6.9-4.6 2.7-8.6 6.1-11.8 10v42.9l-.8 1.2z"/></symbol><symbol viewBox="0 0 20 20" id="phone" xmlns="http://www.w3.org/2000/svg"><path d="M15.5 17c0 .8-.7 1.5-1.5 1.5H7c-.8 0-1.5-.7-1.5-1.5V3c0-.8.7-1.5 1.5-1.5h7c.8 0 1.5.7 1.5 1.5v14z"/><circle cx="10.5" cy="16.5" r=".8"/></symbol><symbol viewBox="0 0 261.6 261.6" id="reshetka" xmlns="http://www.w3.org/2000/svg"><path class="ost0" d="M75 137h13V94H75v43zm79.5-70.3c0-.8.6-1.4 1.4-1.4.8 0 1.4.6 1.4 1.4v23h13.5c-.5-12.3-5.8-23.4-13.9-31.5-8.6-8.6-20.6-14-33.6-14h-.5c-13.1 0-25 5.4-33.6 14-8.2 8.2-13.4 19.2-14 31.5h13v-23c0-.8.6-1.4 1.4-1.4s1.4.6 1.4 1.4v23h13.7V57c0-.8.7-1.4 1.4-1.4.8 0 1.4.7 1.4 1.4v32.7h13.8V51c0-.8.6-1.4 1.4-1.4.8 0 1.4.7 1.4 1.4v38.7h13.7V57c0-.8.7-1.4 1.4-1.4.8 0 1.4.7 1.4 1.4v32.7h13.8l.1-23zm2.8 27.3v31.3c0 .8-.7 1.4-1.4 1.4-.8 0-1.4-.6-1.4-1.4V94h-13.8v31.3c0 .8-.6 1.4-1.4 1.4-.8 0-1.4-.6-1.4-1.4V94h-13.7v43h5.7c1.2 0 2.1.9 2.1 2.1 0 1.2-1 2.1-2.1 2.1h-5.7V190h5c1.2 0 2.1 1 2.1 2.1 0 1.2-1 2.1-2.1 2.1H70.8V91.8c0-14.3 5.8-27.3 15.2-36.7 9.4-9.4 22.4-15.2 36.7-15.2h.5c14.3 0 27.2 5.8 36.7 15.2 9.4 9.4 15.2 22.4 15.2 36.7v33.4c0 1.2-1 2.1-2.1 2.1s-2.1-1-2.1-2.1V94h-13.6zm-66.4 43h13.7V94H90.9v43zm0 4.3V190h13.7v-48.7H90.9zM88.1 190v-48.7H75V190h13.1zm19.4-53h13.8V94h-13.8v43zm0 4.3V190h13.8v-48.7h-13.8zm92.6 4.9l-47.6 4.4v26l47.6-18.8v-11.6zm8.2-11.5h-7.5v3.3l5.3-.2v26.1l-5.3 2.6v3l7.5-3.9v-30.9zm-9.6 0h-40.8v4.8l40.8-1.4v-3.4zm-43 0h-17.4V202l17.4-9v-4.4l-12 5.9V140l1-.1 11-.4v-4.8zm2.2 57.1l40.8-21.2v-3.1c-13.6 6.7-27.2 13.4-40.8 20v4.3zm-21.7-61.4h76.4v37.7l-11.8 6.1v5.9c0 .6-.5 1-1.1 1-.6 0-1-.5-1-1v-4.8c-13.6 7.1-27.2 14.1-40.8 21.2v8.4c0 .6-.5 1-1.1 1s-1-.5-1-1v-7.3L134.1 209v-78.5l2.1-.1zm67.8 9.5l-47.1 1.7h-.2l-10.9.4v22.1l4.5-1v-14.4l1-.1 50.9-4.7v6.6l1.8-.3v-10.3zm-58.1 26.3V191l58.1-28.5v-10.2l-1.8.4v6.5c-17.3 6.9-34.6 13.7-51.8 20.6v-14.5l-4.5.9zm67.4-117.9c-21.1-21.1-50.3-34.2-82.5-34.2S69.5 27.2 48.3 48.3c-21.1 21.1-34.2 50.3-34.2 82.5s13.1 61.4 34.2 82.5 50.3 34.2 82.5 34.2 61.4-13.1 82.5-34.2 34.2-50.3 34.2-82.5c-.1-32.2-13.1-61.4-34.2-82.5zM130.8 0C203 0 261.6 58.6 261.6 130.8c0 72.3-58.6 130.8-130.8 130.8C58.6 261.6 0 203 0 130.8 0 58.6 58.6 0 130.8 0z"/></symbol><symbol viewBox="0 0 199.7 66.6" id="site-logo" xmlns="http://www.w3.org/2000/svg"><path d="M65.4 46.7L49.1 3.6H57l9.2 25.8c1 2.8 1.9 5.7 2.8 8.7.7-2.3 1.6-5 2.7-8.2l9.6-26.3h7.5L72.5 46.7h-7.1zm29.9 0V3.6h6.6v6.1c1.3-2.1 3.2-3.8 5.4-5.1 2.2-1.3 4.8-1.9 7.7-1.9 3.2 0 5.8.7 7.9 2 2 1.3 3.5 3.2 4.3 5.5 3.4-5 7.9-7.5 13.4-7.5 4.3 0 7.6 1.2 9.9 3.5 2.3 2.4 3.5 6 3.5 10.9v29.5h-7.3v-27c0-2.9-.2-5-.7-6.3-.5-1.3-1.3-2.3-2.6-3.1-1.4-.8-2.8-1.2-4.5-1.2-3.1 0-5.6 1-7.6 3s-3 5.2-3 9.7v25H121v-28c0-3.2-.6-5.7-1.8-7.3C118 9.8 116 9 113.3 9c-2.1 0-4 .5-5.7 1.6-1.7 1.1-3 2.7-3.8 4.7-.8 2.1-1.2 5.1-1.2 9v22.3h-7.3v.1zm68 3.6l7.1 1c.3 2.2 1.1 3.8 2.5 4.8 1.8 1.3 4.3 2 7.5 2 3.4 0 6-.7 7.9-2 1.8-1.3 3.1-3.2 3.7-5.7.4-1.5.6-4.6.5-9.3-3.2 3.8-7.2 5.6-12 5.6-5.9 0-10.6-2.1-13.8-6.4-3.3-4.3-4.9-9.4-4.9-15.3 0-4.1.7-7.9 2.2-11.4 1.5-3.5 3.7-6.1 6.5-8 2.8-1.9 6.2-2.8 10-2.8 5.1 0 9.3 2.1 12.6 6.2V3.6h6.7v37.2c0 6.7-.7 11.5-2.1 14.2-1.4 2.8-3.5 5-6.5 6.6-3 1.6-6.6 2.4-11 2.4-5.2 0-9.3-1.1-12.5-3.5-3-2.1-4.5-5.6-4.4-10.2zm6-25.9c0 5.6 1.1 9.7 3.4 12.3 2.3 2.6 5.1 3.9 8.5 3.9 3.4 0 6.2-1.3 8.5-3.9 2.3-2.6 3.4-6.6 3.4-12.1 0-5.3-1.2-9.2-3.5-11.9-2.3-2.7-5.2-4-8.5-4s-6 1.3-8.3 3.9c-2.3 2.7-3.5 6.6-3.5 11.8zM94.6 66.6V54.5h1.8v1.7c.4-.6.9-1.1 1.5-1.4.6-.4 1.3-.5 2.2-.5.9 0 1.6.2 2.2.6.6.4 1 .9 1.2 1.6 1-1.4 2.2-2.1 3.8-2.1 1.2 0 2.1.3 2.8 1 .7.7 1 1.7 1 3.1v8.3H109V59c0-.8-.1-1.4-.2-1.8-.1-.4-.4-.6-.7-.9-.4-.2-.8-.3-1.2-.3-.9 0-1.6.3-2.1.8-.6.6-.8 1.5-.8 2.7v7h-2.1v-7.9c0-.9-.2-1.6-.5-2-.3-.5-.9-.7-1.6-.7-.6 0-1.1.2-1.6.5s-.8.7-1.1 1.3c-.2.6-.3 1.4-.3 2.5v6.3h-2.2v.1zm27.8-3.9l2.1.3c-.3 1.2-1 2.2-1.9 2.9-.9.7-2.1 1-3.5 1-1.8 0-3.2-.5-4.2-1.6s-1.6-2.6-1.6-4.6c0-2 .5-3.6 1.6-4.7 1-1.1 2.4-1.7 4.1-1.7 1.6 0 2.9.5 4 1.6 1 1.1 1.5 2.6 1.5 4.6v.5h-9c.1 1.3.5 2.3 1.1 3 .7.7 1.5 1.1 2.5 1.1.8 0 1.4-.2 1.9-.6.7-.3 1.1-.9 1.4-1.8zm-6.7-3.3h6.8c-.1-1-.4-1.8-.8-2.3-.7-.8-1.5-1.2-2.5-1.2-.9 0-1.7.3-2.4.9-.7.7-1.1 1.6-1.1 2.6zm15.9 5.4l.3 1.8c-.6.1-1.1.2-1.5.2-.7 0-1.3-.1-1.7-.4-.4-.2-.7-.5-.9-.9-.2-.4-.2-1.2-.2-2.4v-7H126v-1.6h1.5v-3l2.1-1.2v4.2h2.1v1.6h-2.1v7.1c0 .6 0 1 .1 1.1.1.2.2.3.4.4.2.1.4.1.7.1.1.1.5.1.8 0zm10 .3c-.8.6-1.5 1.1-2.2 1.4-.7.3-1.5.4-2.3.4-1.3 0-2.4-.3-3.1-1-.7-.6-1.1-1.5-1.1-2.5 0-.6.1-1.1.4-1.6.3-.5.6-.9 1.1-1.2.4-.3.9-.5 1.5-.7.4-.1 1-.2 1.8-.3 1.7-.2 2.9-.4 3.7-.7v-.5c0-.8-.2-1.4-.6-1.8-.5-.5-1.3-.7-2.3-.7-1 0-1.7.2-2.1.5-.5.3-.8.9-1 1.8l-2-.3c.2-.9.5-1.6.9-2.1s1-.9 1.8-1.2c.8-.3 1.7-.4 2.8-.4 1 0 1.9.1 2.5.4.6.2 1.1.5 1.4.9.3.4.5.8.6 1.4.1.3.1 1 .1 1.9v2.7c0 1.9 0 3.1.1 3.6s.3 1 .5 1.5H142c-.2-.4-.4-.9-.4-1.5zm-.2-4.5c-.7.3-1.9.6-3.4.8-.9.1-1.5.3-1.8.4-.4.2-.6.4-.8.7-.2.3-.3.6-.3 1 0 .5.2 1 .6 1.4.4.4 1 .5 1.8.5s1.5-.2 2.1-.5c.6-.3 1.1-.8 1.4-1.4.2-.5.3-1.1.3-2l.1-.9zm5.2 6V49.9h2.1v16.7h-2.1zm5.2 0V49.9h2.1v16.7h-2.1z"/><path d="M33.4 2.4c-8.6 0-16.3 3.5-22 9.1-5.6 5.6-9.1 13.4-9.1 21.9 0 8.5 3.5 16.3 9.1 21.9 5.6 5.6 13.4 9.1 22 9.1H90v2.1H33.4c-9.1 0-17.5-3.7-23.5-9.7-6-6-9.8-14.3-9.8-23.4C.1 24.3 3.8 16 9.9 10 15.9 4 24.2.3 33.4.3v2.1z"/><path d="M37.1 11c-7.2.2-13.2 2.6-17.5 6.4-4.3 3.9-6.8 9.4-6.8 15.5 0 6 2.9 11.5 7.7 15.4 4.8 4 11.4 6.5 18.7 6.5h51.6v2.1H39.2c-7.8 0-14.9-2.7-20-7-5.2-4.4-8.4-10.4-8.4-17.1 0-6.7 2.7-12.7 7.5-17.1 4.6-4.2 11.1-6.8 18.9-6.9l-.1 2.2z"/><path d="M41.3 18.9l13.6 28.5H40.3c-4.7 0-8.9-1.6-12-4.2-3.1-2.6-5.1-6.3-5.1-10.3 0-4 2-7.7 5.1-10.3 3.1-2.6 7.4-4.2 12-4.2h.7l.3.5zm10.2 26.4L39.6 20.4c-3.9.1-7.4 1.5-10 3.7-2.7 2.3-4.3 5.3-4.3 8.7 0 3.4 1.7 6.5 4.3 8.7 2.7 2.3 6.5 3.7 10.7 3.7h11.2v.1z"/></symbol></svg>